<svg width="22" height="22" viewBox="0 0 22 22" fill="none" xmlns="http://www.w3.org/2000/svg">
<path d="M15.7292 13.9167L21.7708 19.9583L19.9583 21.7708L13.9167 15.7292V14.7746L13.5904 14.4363C12.1694 15.6613 10.3553 16.3347 8.47917 16.3333C6.39611 16.3333 4.39837 15.5058 2.92543 14.0329C1.45249 12.56 0.625 10.5622 0.625 8.47917C0.625 6.39611 1.45249 4.39837 2.92543 2.92543C4.39837 1.45249 6.39611 0.625 8.47917 0.625C10.5622 0.625 12.56 1.45249 14.0329 2.92543C15.5058 4.39837 16.3333 6.39611 16.3333 8.47917C16.3333 10.4246 15.6204 12.2129 14.4363 13.5904L14.7746 13.9167H15.7292ZM8.47917 2.4375L7.81458 2.47375C7.52458 3.10208 7.0775 4.16542 6.75125 5.45833H10.2071C9.88083 4.16542 9.43375 3.10208 9.14375 2.47375C8.92625 2.4375 8.70875 2.4375 8.47917 2.4375ZM13.7113 5.45833C12.9927 4.20118 11.8418 3.24789 10.4729 2.77583C10.7629 3.41625 11.1375 4.34667 11.4154 5.45833H13.7113ZM3.24708 5.45833H5.54292C5.82083 4.34667 6.19542 3.41625 6.48542 2.77583C5.11649 3.24789 3.96567 4.20118 3.24708 5.45833ZM2.4375 8.47917C2.4375 9.08333 2.53417 9.72375 2.71542 10.2917H5.30125L5.15625 8.47917L5.30125 6.66667H2.71542C2.53417 7.23458 2.4375 7.875 2.4375 8.47917ZM14.2429 10.2917C14.4242 9.72375 14.5208 9.08333 14.5208 8.47917C14.5208 7.875 14.4242 7.23458 14.2429 6.66667H11.6571C11.8495 7.86734 11.8495 9.09099 11.6571 10.2917H14.2429ZM6.50958 6.66667L6.36458 8.47917L6.50958 10.2917H10.4488C10.6412 9.09099 10.6412 7.86734 10.4488 6.66667H6.50958ZM8.47917 14.5208C8.69667 14.5208 8.91417 14.5208 9.11958 14.4846C9.42167 13.8563 9.88083 12.7929 10.2071 11.5H6.75125C7.0775 12.7929 7.53667 13.8563 7.83875 14.4846L8.47917 14.5208ZM13.7113 11.5H11.4154C11.1375 12.6117 10.7629 13.5421 10.4729 14.1825C11.8418 13.7104 12.9927 12.7572 13.7113 11.5ZM3.24708 11.5C3.96567 12.7572 5.11649 13.7104 6.48542 14.1825C6.19542 13.5421 5.82083 12.6117 5.54292 11.5H3.24708Z" fill="white"/>
</svg>
