<svg width="27" height="25" viewBox="0 0 27 25" fill="none" xmlns="http://www.w3.org/2000/svg">
<path d="M1.41732 9.87465H5.04232V24.3746H1.41732C1.09685 24.3746 0.789503 24.2473 0.562897 24.0207C0.336291 23.7941 0.208984 23.4868 0.208984 23.1663V11.083C0.208984 10.7625 0.336291 10.4552 0.562897 10.2286C0.789503 10.002 1.09685 9.87465 1.41732 9.87465ZM7.81303 8.31227L15.5464 0.578938C15.6491 0.47586 15.7857 0.413356 15.9309 0.402922C16.0761 0.392488 16.2201 0.434825 16.3366 0.522146L17.3673 1.29548C17.6536 1.51038 17.8698 1.80522 17.9887 2.14283C18.1076 2.48044 18.1239 2.84571 18.0355 3.19256L16.6423 8.66631H24.3757C25.0166 8.66631 25.6313 8.92093 26.0845 9.37414C26.5377 9.82735 26.7923 10.442 26.7923 11.083V13.6253C26.7926 13.9411 26.7311 14.2539 26.6111 14.5461L22.8713 23.6267C22.78 23.8481 22.6251 24.0374 22.4261 24.1705C22.2271 24.3037 21.993 24.3747 21.7536 24.3746H8.66732C8.34685 24.3746 8.0395 24.2473 7.8129 24.0207C7.58629 23.7941 7.45898 23.4868 7.45898 23.1663V9.16656C7.45905 8.84612 7.5864 8.53883 7.81303 8.31227Z" fill="white"/>
</svg>
