<svg width="18" height="21" viewBox="0 0 18 21" fill="none" xmlns="http://www.w3.org/2000/svg">
<path d="M2.20833 20.9168C1.63542 20.9168 1.14479 20.7127 0.73646 20.3043C0.328127 19.896 0.124307 19.4057 0.125002 18.8335V4.25016H2.20833V18.8335H13.6667V20.9168H2.20833ZM6.375 16.7502C5.80208 16.7502 5.31146 16.546 4.90313 16.1377C4.49479 15.7293 4.29097 15.2391 4.29167 14.6668V2.16683C4.29167 1.59391 4.49583 1.10329 4.90417 0.694956C5.3125 0.286623 5.80278 0.0828034 6.375 0.0834979H15.75C16.3229 0.0834979 16.8135 0.287665 17.2219 0.695998C17.6302 1.10433 17.834 1.59461 17.8333 2.16683V14.6668C17.8333 15.2397 17.6292 15.7304 17.2208 16.1387C16.8125 16.547 16.3222 16.7509 15.75 16.7502H6.375ZM6.375 14.6668H15.75V2.16683H6.375V14.6668Z" fill="#D4D4D4"/>
</svg>
