<svg width="19" height="25" viewBox="0 0 19 25" fill="none" xmlns="http://www.w3.org/2000/svg">
<path d="M3.70078 0.899902C2.93165 0.899902 2.19403 1.20544 1.65017 1.74929C1.10632 2.29315 0.800781 3.03077 0.800781 3.7999V21.1999C0.800781 21.969 1.10632 22.7067 1.65017 23.2505C2.19403 23.7944 2.93165 24.0999 3.70078 24.0999H17.4758C17.6681 24.0999 17.8525 24.0235 17.9884 23.8876C18.1244 23.7516 18.2008 23.5672 18.2008 23.3749C18.2008 23.1826 18.1244 22.9982 17.9884 22.8623C17.8525 22.7263 17.6681 22.6499 17.4758 22.6499H3.70078C3.31622 22.6499 2.9474 22.4971 2.67548 22.2252C2.40355 21.9533 2.25078 21.5845 2.25078 21.1999H16.7508C17.1353 21.1999 17.5042 21.0471 17.7761 20.7752C18.048 20.5033 18.2008 20.1345 18.2008 19.7499V3.7999C18.2008 3.03077 17.8952 2.29315 17.3514 1.74929C16.8075 1.20544 16.0699 0.899902 15.3008 0.899902H3.70078ZM7.70278 7.29295C7.47626 7.52269 7.34208 7.82768 7.32578 8.1499C7.32578 8.34218 7.2494 8.52659 7.11343 8.66255C6.97747 8.79852 6.79306 8.8749 6.60078 8.8749C6.4085 8.8749 6.22409 8.79852 6.08813 8.66255C5.95217 8.52659 5.87578 8.34218 5.87578 8.1499C5.87578 7.62065 6.07878 6.88985 6.65878 6.2881C7.25328 5.6704 8.18128 5.2499 9.50078 5.2499C10.8203 5.2499 11.7483 5.66895 12.3428 6.2881C12.9228 6.88985 13.1258 7.62065 13.1258 8.1499C13.1258 9.6666 12.0673 10.3931 11.2741 10.7875C11.087 10.8791 10.8975 10.9656 10.7057 11.047L10.6898 11.0543C10.533 11.1201 10.3783 11.1907 10.2258 11.266V12.4999C10.226 12.6922 10.1498 12.8767 10.0139 13.0128C9.87812 13.1489 9.69379 13.2254 9.50151 13.2256C9.30922 13.2258 9.12474 13.1496 8.98864 13.0138C8.85254 12.878 8.77597 12.6936 8.77578 12.5014V11.0499C8.77578 10.6903 8.96138 10.4322 9.12813 10.2742C9.28618 10.1263 9.47613 10.0204 9.62838 9.94355C9.77628 9.86815 9.94448 9.79565 10.0982 9.7304L10.1301 9.7159C10.3012 9.64195 10.4665 9.5709 10.6274 9.4897C11.2843 9.162 11.6758 8.8082 11.6758 8.1499C11.6595 7.82768 11.5253 7.52269 11.2988 7.29295C11.0233 7.0044 10.5013 6.6999 9.50078 6.6999C8.50028 6.6999 7.97828 7.00585 7.70278 7.29295ZM9.50078 16.8499C9.21236 16.8499 8.93575 16.7353 8.7318 16.5314C8.52786 16.3274 8.41328 16.0508 8.41328 15.7624C8.41328 15.474 8.52786 15.1974 8.7318 14.9934C8.93575 14.7895 9.21236 14.6749 9.50078 14.6749C9.78921 14.6749 10.0658 14.7895 10.2698 14.9934C10.4737 15.1974 10.5883 15.474 10.5883 15.7624C10.5883 16.0508 10.4737 16.3274 10.2698 16.5314C10.0658 16.7353 9.78921 16.8499 9.50078 16.8499Z" fill="white"/>
</svg>
