<svg width="24" height="25" viewBox="0 0 24 25" fill="none" xmlns="http://www.w3.org/2000/svg">
<path d="M23.4309 11.4641H12.3505V14.7628H20.2168C19.818 19.3666 15.9876 21.3362 12.3626 21.3362C7.73469 21.3362 3.67469 17.687 3.67469 12.5516C3.67469 7.59743 7.54135 3.76701 12.3747 3.76701C16.1084 3.76701 18.2955 6.14743 18.2955 6.14743L20.5914 3.75493C20.5914 3.75493 17.643 0.468262 12.2539 0.468262C5.39052 0.468262 0.0859375 6.26826 0.0859375 12.5516C0.0859375 18.6537 5.07635 24.6349 12.4351 24.6349C18.8997 24.6349 23.6122 20.2003 23.6122 13.6512C23.6122 12.2616 23.4309 11.4641 23.4309 11.4641Z" fill="white"/>
</svg>
