<svg width="18" height="19" viewBox="0 0 18 19" fill="none" xmlns="http://www.w3.org/2000/svg">
<path d="M17.9501 6.18363C18.0695 6.50654 17.9688 6.86658 17.7114 7.0967L16.0963 8.55909C16.1373 8.86716 16.1597 9.18265 16.1597 9.50186C16.1597 9.82106 16.1373 10.1365 16.0963 10.4446L17.7114 11.907C17.9688 12.1371 18.0695 12.4972 17.9501 12.8201C17.786 13.2618 17.5883 13.6849 17.3608 14.0932L17.1855 14.3938C16.9393 14.8021 16.6633 15.1881 16.3611 15.5519C16.1411 15.8191 15.7755 15.9082 15.4473 15.8043L13.3697 15.1473C12.8699 15.5296 12.3178 15.8488 11.7285 16.0901L11.2622 18.2094C11.1876 18.5472 10.9265 18.8144 10.5834 18.8701C10.0686 18.9555 9.53898 19 8.99814 19C8.45729 19 7.92763 18.9555 7.41289 18.8701C7.06973 18.8144 6.80863 18.5472 6.73403 18.2094L6.26779 16.0901C5.67845 15.8488 5.12641 15.5296 4.62659 15.1473L2.55272 15.808C2.22448 15.9119 1.85894 15.8191 1.63887 15.5556C1.33674 15.1918 1.06072 14.8058 0.814545 14.3975L0.639236 14.0969C0.411707 13.6886 0.214018 13.2655 0.0498982 12.8238C-0.0694614 12.5009 0.0312482 12.1408 0.288617 11.9107L1.9037 10.4483C1.86267 10.1365 1.84029 9.82106 1.84029 9.50186C1.84029 9.18265 1.86267 8.86716 1.9037 8.55909L0.288617 7.0967C0.0312482 6.86658 -0.0694614 6.50654 0.0498982 6.18363C0.214018 5.74194 0.411707 5.31881 0.639236 4.91053L0.814545 4.60988C1.06072 4.2016 1.33674 3.81559 1.63887 3.45185C1.85894 3.18461 2.22448 3.09553 2.55272 3.19945L4.63032 3.85642C5.13014 3.47412 5.68218 3.15491 6.27152 2.91366L6.73776 0.794296C6.81236 0.456534 7.07346 0.189295 7.41662 0.13362C7.93136 0.0445399 8.46102 0 9.00187 0C9.54271 0 10.0724 0.04454 10.5871 0.129908C10.9303 0.185583 11.1914 0.452823 11.266 0.790584L11.7322 2.90994C12.3216 3.1512 12.8736 3.4704 13.3734 3.85271L15.451 3.19574C15.7793 3.09181 16.1448 3.18461 16.3649 3.44813C16.667 3.81188 16.943 4.19789 17.1892 4.60617L17.3645 4.90682C17.592 5.3151 17.7897 5.73823 17.9538 6.17992L17.9501 6.18363ZM9.00187 12.4712C9.79327 12.4712 10.5523 12.1583 11.1119 11.6015C11.6715 11.0446 11.9859 10.2894 11.9859 9.50186C11.9859 8.71434 11.6715 7.95908 11.1119 7.40222C10.5523 6.84537 9.79327 6.53253 9.00187 6.53253C8.21046 6.53253 7.45147 6.84537 6.89187 7.40222C6.33226 7.95908 6.01788 8.71434 6.01788 9.50186C6.01788 10.2894 6.33226 11.0446 6.89187 11.6015C7.45147 12.1583 8.21046 12.4712 9.00187 12.4712Z" fill="#01539D"/>
</svg>
