<svg width="29" height="25" viewBox="0 0 29 25" fill="none" xmlns="http://www.w3.org/2000/svg">
<path d="M26.1 16.8499H27.55C28.3475 16.8499 29 17.5024 29 18.3144V22.6354C29 23.4474 28.3475 24.0999 27.55 24.0999H21.75C20.9525 24.0999 20.3 23.4474 20.3 22.6354V18.3144C20.3 17.5024 20.9525 16.8499 21.75 16.8499H23.2V13.9499H15.95V16.8499H17.4C18.1975 16.8499 18.85 17.5024 18.85 18.3144V22.6354C18.85 23.4474 18.1975 24.0999 17.4 24.0999H11.6C10.8025 24.0999 10.15 23.4474 10.15 22.6354V18.3144C10.15 17.5024 10.8025 16.8499 11.6 16.8499H13.05V13.9499H5.8V16.8499H7.25C8.0475 16.8499 8.7 17.5024 8.7 18.3144V22.6354C8.7 23.4474 8.0475 24.0999 7.25 24.0999H1.45C0.6525 24.0999 0 23.4474 0 22.6354V18.3144C0 17.5024 0.6525 16.8499 1.45 16.8499H2.9V13.9499C2.9 12.3549 4.205 11.0499 5.8 11.0499H13.05V8.1499H11.6C10.8025 8.1499 10.15 7.4974 10.15 6.6854V2.3644C10.15 1.5524 10.8025 0.899902 11.6 0.899902H17.4C18.1975 0.899902 18.85 1.5524 18.85 2.3644V6.6854C18.85 7.4974 18.1975 8.1499 17.4 8.1499H15.95V11.0499H23.2C24.795 11.0499 26.1 12.3549 26.1 13.9499V16.8499Z" fill="white"/>
</svg>
