<svg width="18" height="15" viewBox="0 0 18 15" fill="none" xmlns="http://www.w3.org/2000/svg">
<path d="M17.0999 0H10.7995C10.5608 8.69042e-05 10.3319 0.0929787 10.163 0.258295L8.99936 1.39879L7.83577 0.258295C7.66686 0.0929787 7.43794 8.69042e-05 7.19924 0H0.900064C0.661352 0 0.432417 0.0929458 0.263623 0.25839C0.094828 0.423834 0 0.648225 0 0.882198V12.3533C0 12.5872 0.094828 12.8116 0.263623 12.9771C0.432417 13.1425 0.661352 13.2355 0.900064 13.2355H6.8275L8.3641 14.7378C8.44707 14.8208 8.54611 14.8868 8.65541 14.9318C8.76471 14.9768 8.88208 15 9.00064 15C9.11919 15 9.23656 14.9768 9.34586 14.9318C9.45516 14.8868 9.5542 14.8208 9.63717 14.7378L11.1725 13.2267H17.0999C17.3386 13.2267 17.5676 13.1338 17.7364 12.9683C17.9052 12.8029 18 12.5785 18 12.3445V0.882198C18 0.648225 17.9052 0.423834 17.7364 0.25839C17.5676 0.0929458 17.3386 0 17.0999 0ZM7.19924 11.4673H1.80013V1.7644H6.8275L8.10057 3.0122V11.9789L7.83577 11.7294C7.66686 11.5641 7.43794 11.4712 7.19924 11.4711V11.4673ZM16.1986 11.4673H10.7995C10.5608 11.4674 10.3319 11.5603 10.163 11.7256L9.89943 11.9839V3.01096L11.1725 1.76315H16.1999L16.1986 11.4673Z" fill="#02549E"/>
</svg>
