<svg width="13" height="22" viewBox="0 0 13 22" fill="none" xmlns="http://www.w3.org/2000/svg">
<path d="M4.83027 15.0526C4.83027 13.4895 4.97459 12.3652 5.26321 11.6797C5.55183 10.9942 6.16287 10.2466 7.09633 9.43684C7.91131 8.7421 8.53269 8.13884 8.96046 7.62705C9.38822 7.11526 9.60171 6.53168 9.60092 5.87631C9.60092 5.08509 9.3278 4.42895 8.78156 3.90789C8.23532 3.38684 7.4748 3.12632 6.5 3.12632C5.48624 3.12632 4.71578 3.42544 4.18862 4.02368C3.66147 4.62193 3.28936 5.22982 3.07229 5.84737L0 4.57368C0.417431 3.3386 1.18272 2.26754 2.29587 1.36053C3.40902 0.453509 4.8104 0 6.5 0C8.58715 0 10.1925 0.564666 11.316 1.694C12.4394 2.82333 13.0008 4.17884 13 5.76053C13 6.72544 12.7865 7.55063 12.3595 8.2361C11.9326 8.92158 11.2615 9.69814 10.3463 10.5658C9.37232 11.4728 8.78116 12.1629 8.57284 12.6361C8.36452 13.1093 8.25997 13.9148 8.25917 15.0526H4.83027ZM6.5 22C5.84404 22 5.28269 21.7731 4.81596 21.3192C4.34923 20.8653 4.11547 20.3203 4.11468 19.6842C4.11468 19.0474 4.34844 18.502 4.81596 18.0481C5.28349 17.5942 5.84483 17.3676 6.5 17.3684C7.15596 17.3684 7.7177 17.5954 8.18523 18.0493C8.65275 18.5032 8.88611 19.0481 8.88532 19.6842C8.88532 20.3211 8.65156 20.8664 8.18403 21.3203C7.71651 21.7742 7.15517 22.0008 6.5 22Z" fill="white"/>
</svg>
