<svg width="19" height="19" viewBox="0 0 19 19" fill="none" xmlns="http://www.w3.org/2000/svg">
<path d="M10.7667 1.22581C10.7667 0.547782 10.2006 0 9.5 0C8.79937 0 8.23333 0.547782 8.23333 1.22581V9.80645C8.23333 10.4845 8.79937 11.0323 9.5 11.0323C10.2006 11.0323 10.7667 10.4845 10.7667 9.80645V1.22581ZM5.04688 4.61976C5.58521 4.1869 5.65646 3.41311 5.20917 2.89214C4.76188 2.37117 3.96229 2.30222 3.42396 2.73508C1.33396 4.42056 0 6.96411 0 9.80645C0 14.8821 4.25521 19 9.5 19C14.7448 19 19 14.8821 19 9.80645C19 6.96411 17.6621 4.42056 15.5721 2.73508C15.0337 2.30222 14.2342 2.375 13.7869 2.89214C13.3396 3.40927 13.4148 4.1869 13.9492 4.61976C15.489 5.85706 16.4627 7.72258 16.4627 9.80645C16.4627 13.5298 13.3435 16.5484 9.49604 16.5484C5.64854 16.5484 2.52938 13.5298 2.52938 9.80645C2.52938 7.72258 3.50708 5.85706 5.04292 4.61976H5.04688Z" fill="#CC4949"/>
</svg>
