<svg width="29" height="29" viewBox="0 0 29 29" fill="none" xmlns="http://www.w3.org/2000/svg">
<g clip-path="url(#clip0_196_1716)">
<path d="M23.8216 12.4283H25.8931C26.1893 12.4258 26.4827 12.4868 26.7533 12.6074C27.0239 12.7279 27.2656 12.905 27.4619 13.1269C27.6582 13.3487 27.8047 13.6101 27.8914 13.8934C27.9781 14.1767 28.003 14.4753 27.9645 14.769L26.4524 26.1619C26.3866 26.6634 26.1397 27.1235 25.7581 27.4554C25.3765 27.7874 24.8867 27.9683 24.3809 27.964H4.6195C4.11374 27.9683 3.62389 27.7874 3.24232 27.4554C2.86074 27.1235 2.6138 26.6634 2.54807 26.1619L1.05664 14.769C1.01836 14.477 1.04277 14.1802 1.12827 13.8984C1.21376 13.6166 1.35837 13.3562 1.55244 13.1347C1.74651 12.9132 1.98558 12.7356 2.25371 12.6138C2.52183 12.492 2.81285 12.4287 3.10736 12.4283H5.17878" stroke="white" stroke-width="3.35714" stroke-linecap="round" stroke-linejoin="round"/>
<path d="M21.6671 27.9642L17.255 8.28564H18.125C19.0864 8.28564 20.0084 7.90373 20.6883 7.22391C21.3681 6.54409 21.75 5.62205 21.75 4.66064C21.75 3.69923 21.3681 2.7772 20.6883 2.09738C20.0084 1.41756 19.0864 1.03564 18.125 1.03564H10.875C9.91359 1.03564 8.99156 1.41756 8.31174 2.09738C7.63192 2.7772 7.25 3.69923 7.25 4.66064C7.25 5.62205 7.63192 6.54409 8.31174 7.22391C8.99156 7.90373 9.91359 8.28564 10.875 8.28564H11.7243L7.33286 27.9642" stroke="white" stroke-width="3.35714" stroke-linecap="round" stroke-linejoin="round"/>
</g>
<defs>
<clipPath id="clip0_196_1716">
<rect width="29" height="29" fill="white"/>
</clipPath>
</defs>
</svg>
